<?xml version="1.0" encoding="utf-8"?>
<!-- Generator: Adobe Illustrator 27.5.0, SVG Export Plug-In . SVG Version: 6.00 Build 0)  -->
<svg version="1.1" xmlns="http://www.w3.org/2000/svg" xmlns:xlink="http://www.w3.org/1999/xlink" x="0px" y="0px"
	 viewBox="0 0 500 500" style="enable-background:new 0 0 500 500;" xml:space="preserve">
<g id="BACKGROUND">
	<rect style="fill:#000014;" width="500" height="500"/>
</g>
<g id="OBJECTS">
	<g>
		
			<text transform="matrix(1 0 0 1 135.8049 350.6674)" style="fill:#FFFFFF; font-family:'Montserrat-ExtraBold'; font-size:22.3279px;">north star logo</text>
		<g>
			<linearGradient id="SVGID_1_" gradientUnits="userSpaceOnUse" x1="294.9482" y1="283.2294" x2="294.9482" y2="141.3394">
				<stop  offset="0" style="stop-color:#7A42C7"/>
				<stop  offset="0.5302" style="stop-color:#2D1F80"/>
				<stop  offset="1" style="stop-color:#538ACD"/>
			</linearGradient>
			<polygon style="fill:url(#SVGID_1_);" points="339.897,222.229 277.076,195.439 250,125.042 250,222.229 250,319.416 
				277.076,249.019 			"/>
			
				<linearGradient id="SVGID_00000096738654022285240180000018042655000545567907_" gradientUnits="userSpaceOnUse" x1="78.6691" y1="49.6263" x2="358.624" y2="331.6597">
				<stop  offset="0" style="stop-color:#7A42C7"/>
				<stop  offset="0.5302" style="stop-color:#2D1F80"/>
				<stop  offset="1" style="stop-color:#538ACD"/>
			</linearGradient>
			<polygon style="fill:url(#SVGID_00000096738654022285240180000018042655000545567907_);" points="222.924,195.439 
				160.103,222.229 160.103,222.229 222.924,249.019 250,319.416 250,222.229 250,222.229 250,222.229 250,125.042 			"/>
		</g>
		<path style="fill:#7A42C7;" d="M318.819,239.019l-4.385,1.56c11.601,12.057,16.44,22.678,11.635,28.742
			c-9.15,11.545-49.756,2.209-90.697-20.853s-66.713-51.115-57.564-62.66c5.199-6.559,20.558-6.371,40.359-0.761l1.284-3.367
			c-28.614-9.601-51.56-11.028-58.742-1.966c-11.134,14.048,19.817,47.955,69.131,75.733c49.315,27.778,98.317,38.908,109.451,24.86
			C345.993,271.85,337.441,256.198,318.819,239.019z"/>
		
			<text transform="matrix(1 0 0 1 179.2349 371.5006)" style="fill:#FFFFFF; font-family:'Montserrat-Bold'; font-size:13px; letter-spacing:3;">slogan here</text>
	</g>
</g>
</svg>
