<?xml version="1.0" encoding="UTF-8" standalone="no"?>
<!DOCTYPE svg PUBLIC "-//W3C//DTD SVG 1.1//EN" "http://www.w3.org/Graphics/SVG/1.1/DTD/svg11.dtd">
<svg xmlns="http://www.w3.org/2000/svg" version="1.1" viewBox="0.00 0.00 548.00 455.00">
<g stroke-width="2.00" fill="none" stroke-linecap="butt">
<path stroke="#2b75c1" vector-effect="non-scaling-stroke" d="
  M 298.05 94.29
  Q 298.07 94.75 297.14 94.38
  Q 297.02 94.34 296.93 94.41
  Q 296.74 94.55 296.85 94.78
  A 0.22 0.22 0.0 0 1 296.61 95.09
  Q 296.21 95.04 295.90 94.77
  Q 295.63 94.53 295.33 94.72
  C 293.95 95.60 292.44 94.86 290.94 94.87
  Q 289.25 94.87 287.52 94.90
  Q 285.75 94.93 284.11 95.25
  Q 281.02 95.84 277.61 95.43
  Q 277.19 95.38 277.01 95.00
  Q 276.45 93.82 276.37 92.20"
/>
<path stroke="#2c50a9" vector-effect="non-scaling-stroke" d="
  M 276.37 92.20
  L 276.59 38.31"
/>
<path stroke="#31419f" vector-effect="non-scaling-stroke" d="
  M 276.37 92.20
  L 276.29 134.37"
/>
<path stroke="#31248c" vector-effect="non-scaling-stroke" d="
  M 276.29 134.37
  Q 276.00 160.79 276.16 187.41
  C 276.17 188.81 275.80 190.39 275.50 191.73
  Q 275.39 192.24 274.96 192.54
  Q 273.83 193.36 273.24 194.64
  Q 273.00 195.15 272.54 195.47
  Q 268.35 198.30 264.15 201.36
  C 262.98 202.21 262.55 203.24 261.45 204.18
  C 259.87 205.52 259.00 207.17 257.30 208.47
  Q 256.30 209.23 255.36 210.60
  Q 254.32 212.12 252.99 213.39
  Q 251.61 214.69 250.48 216.04
  Q 247.67 219.36 244.49 222.31
  Q 241.44 225.15 238.38 228.06
  Q 231.40 234.71 224.52 240.54
  C 223.59 241.33 223.29 242.37 222.92 243.48
  Q 222.74 244.03 222.20 244.24
  Q 220.64 244.83 219.47 246.16
  Q 218.33 247.47 216.93 248.41
  Q 214.75 249.89 213.44 252.29
  A 2.37 2.30 86.8 0 1 212.85 252.97
  Q 211.08 254.30 209.37 255.82
  Q 206.95 257.97 205.65 260.35
  Q 205.45 260.73 205.08 260.96
  Q 203.48 261.99 202.60 263.84
  A 1.55 1.54 -2.9 0 1 202.00 264.50
  Q 201.28 264.93 200.87 265.58"
/>
<path stroke="#5e2eaa" vector-effect="non-scaling-stroke" d="
  M 200.87 265.58
  C 180.64 251.47 160.92 235.43 144.47 217.01
  Q 144.16 216.67 143.99 216.05"
/>
<path stroke="#3149a4" vector-effect="non-scaling-stroke" d="
  M 313.84 135.26
  Q 313.91 135.75 313.75 135.97
  Q 313.56 136.24 313.24 136.12
  Q 312.80 135.95 312.65 135.49
  Q 312.47 134.97 311.98 135.22
  Q 310.82 135.81 309.50 135.84
  Q 300.19 136.06 290.12 135.71
  Q 287.83 135.63 284.32 136.23
  Q 283.79 136.32 283.28 136.20
  Q 282.63 136.05 281.52 136.17
  Q 277.70 136.60 276.29 134.37"
/>
<path stroke="#31248c" vector-effect="non-scaling-stroke" d="
  M 435.47 227.45
  Q 434.12 227.58 433.39 226.87
  Q 433.26 226.74 433.07 226.73
  Q 432.94 226.72 432.99 226.96
  Q 433.03 227.18 432.81 227.15
  Q 431.56 226.97 430.64 226.18
  Q 430.23 225.84 429.71 225.91
  Q 428.34 226.09 427.10 225.41
  Q 426.22 224.93 425.23 225.05
  Q 422.77 225.33 420.07 225.65
  Q 417.78 225.92 414.92 225.53
  Q 410.93 225.00 406.00 225.19
  Q 404.64 225.25 399.25 225.16
  Q 379.66 224.83 359.39 224.66
  C 358.11 224.65 357.14 224.98 355.84 224.78
  Q 354.53 224.57 353.18 224.59
  Q 337.42 224.80 321.25 224.29
  Q 309.76 223.92 291.36 224.56
  C 290.21 224.60 289.15 224.22 287.99 224.39
  Q 283.84 224.99 279.45 224.05
  A 2.13 2.12 -66.8 0 0 277.23 224.94
  Q 277.17 225.02 277.12 225.63
  Q 277.19 225.29 277.08 225.12
  Q 276.75 224.61 276.75 225.22
  L 276.84 244.47"
/>
<path stroke="#402997" vector-effect="non-scaling-stroke" d="
  M 276.84 244.47
  Q 276.34 251.70 276.33 262.75
  Q 276.28 293.86 276.38 305.50
  Q 276.41 308.77 275.14 309.12"
/>
<path stroke="#5e36af" vector-effect="non-scaling-stroke" d="
  M 275.14 309.12
  Q 273.37 308.45 268.53 305.97
  Q 231.91 287.12 200.87 265.58"
/>
<path stroke="#6d34b5" vector-effect="non-scaling-stroke" d="
  M 275.14 309.12
  Q 295.76 319.00 317.24 327.67
  Q 317.70 327.86 318.19 327.77
  Q 319.07 327.63 319.76 327.98"
/>
<path stroke="#5f42b7" vector-effect="non-scaling-stroke" d="
  M 275.69 438.58
  Q 275.84 437.48 276.06 436.52
  Q 276.32 435.37 276.32 434.46
  C 276.36 400.27 275.93 366.05 276.59 331.86
  A 2.21 2.20 -76.8 0 0 275.34 329.84
  Q 249.25 317.32 223.57 302.47"
/>
<path stroke="#5e2eaa" vector-effect="non-scaling-stroke" d="
  M 188.57 280.71
  Q 177.44 272.46 166.83 264.66
  Q 142.35 246.68 121.45 225.78"
/>
<path stroke="#402292" vector-effect="non-scaling-stroke" d="
  M 448.00 245.41
  Q 448.50 244.30 447.75 244.24
  Q 440.07 243.56 432.04 243.01
  Q 430.75 242.92 429.50 243.01
  Q 428.19 243.10 426.92 243.15
  Q 425.04 243.24 423.07 243.13
  Q 403.96 242.13 398.74 242.60
  Q 394.99 242.94 391.27 242.58
  C 390.43 242.50 389.70 242.85 388.82 242.83
  Q 380.30 242.58 370.45 242.61
  C 368.83 242.62 367.38 241.99 365.77 242.16
  Q 364.01 242.36 362.25 242.19
  Q 360.09 241.98 357.79 242.00
  Q 351.00 242.07 344.30 241.96
  Q 342.37 241.92 340.17 242.12
  C 338.96 242.23 337.96 241.58 336.77 242.07
  Q 336.28 242.27 335.79 242.10
  Q 335.49 242.00 335.18 242.00
  L 297.50 242.42
  A 0.81 0.77 -68.4 0 0 296.91 242.69
  Q 296.41 243.24 295.87 242.98
  Q 295.58 242.84 295.26 242.85
  L 279.43 243.21
  Q 279.29 243.22 279.20 243.31
  L 279.01 243.51
  Q 278.36 244.16 278.32 243.07
  Q 278.31 242.52 277.80 242.44
  Q 277.27 242.37 277.16 242.90
  L 276.84 244.47"
/>
</g>
<path fill="#2683cb" d="
  M 298.05 94.29
  Q 298.07 94.75 297.14 94.38
  Q 297.02 94.34 296.93 94.41
  Q 296.74 94.55 296.85 94.78
  A 0.22 0.22 0.0 0 1 296.61 95.09
  Q 296.21 95.04 295.90 94.77
  Q 295.63 94.53 295.33 94.72
  C 293.95 95.60 292.44 94.86 290.94 94.87
  Q 289.25 94.87 287.52 94.90
  Q 285.75 94.93 284.11 95.25
  Q 281.02 95.84 277.61 95.43
  Q 277.19 95.38 277.01 95.00
  Q 276.45 93.82 276.37 92.20
  L 276.59 38.31
  L 298.05 94.29
  Z"
/>
<path fill="#311c87" d="
  M 276.59 38.31
  L 276.37 92.20
  L 276.29 134.37
  Q 276.00 160.79 276.16 187.41
  C 276.17 188.81 275.80 190.39 275.50 191.73
  Q 275.39 192.24 274.96 192.54
  Q 273.83 193.36 273.24 194.64
  Q 273.00 195.15 272.54 195.47
  Q 268.35 198.30 264.15 201.36
  C 262.98 202.21 262.55 203.24 261.45 204.18
  C 259.87 205.52 259.00 207.17 257.30 208.47
  Q 256.30 209.23 255.36 210.60
  Q 254.32 212.12 252.99 213.39
  Q 251.61 214.69 250.48 216.04
  Q 247.67 219.36 244.49 222.31
  Q 241.44 225.15 238.38 228.06
  Q 231.40 234.71 224.52 240.54
  C 223.59 241.33 223.29 242.37 222.92 243.48
  Q 222.74 244.03 222.20 244.24
  Q 220.64 244.83 219.47 246.16
  Q 218.33 247.47 216.93 248.41
  Q 214.75 249.89 213.44 252.29
  A 2.37 2.30 86.8 0 1 212.85 252.97
  Q 211.08 254.30 209.37 255.82
  Q 206.95 257.97 205.65 260.35
  Q 205.45 260.73 205.08 260.96
  Q 203.48 261.99 202.60 263.84
  A 1.55 1.54 -2.9 0 1 202.00 264.50
  Q 201.28 264.93 200.87 265.58
  C 180.64 251.47 160.92 235.43 144.47 217.01
  Q 144.16 216.67 143.99 216.05
  L 219.19 184.07
  A 2.56 2.55 -0.9 0 0 220.56 182.66
  Q 226.52 167.38 232.22 152.51
  Q 250.77 104.13 266.31 63.74
  Q 268.21 58.79 270.16 53.45
  Q 272.71 46.46 276.59 38.31
  Z"
/>
<path fill="#3066b7" d="
  M 276.37 92.20
  Q 276.45 93.82 277.01 95.00
  Q 277.19 95.38 277.61 95.43
  Q 281.02 95.84 284.11 95.25
  Q 285.75 94.93 287.52 94.90
  Q 289.25 94.87 290.94 94.87
  C 292.44 94.86 293.95 95.60 295.33 94.72
  Q 295.63 94.53 295.90 94.77
  Q 296.21 95.04 296.61 95.09
  A 0.22 0.22 0.0 0 0 296.85 94.78
  Q 296.74 94.55 296.93 94.41
  Q 297.02 94.34 297.14 94.38
  Q 298.07 94.75 298.05 94.29
  L 313.84 135.26
  Q 313.91 135.75 313.75 135.97
  Q 313.56 136.24 313.24 136.12
  Q 312.80 135.95 312.65 135.49
  Q 312.47 134.97 311.98 135.22
  Q 310.82 135.81 309.50 135.84
  Q 300.19 136.06 290.12 135.71
  Q 287.83 135.63 284.32 136.23
  Q 283.79 136.32 283.28 136.20
  Q 282.63 136.05 281.52 136.17
  Q 277.70 136.60 276.29 134.37
  L 276.37 92.20
  Z"
/>
<path fill="#312b90" d="
  M 276.29 134.37
  Q 277.70 136.60 281.52 136.17
  Q 282.63 136.05 283.28 136.20
  Q 283.79 136.32 284.32 136.23
  Q 287.83 135.63 290.12 135.71
  Q 300.19 136.06 309.50 135.84
  Q 310.82 135.81 311.98 135.22
  Q 312.47 134.97 312.65 135.49
  Q 312.80 135.95 313.24 136.12
  Q 313.56 136.24 313.75 135.97
  Q 313.91 135.75 313.84 135.26
  L 331.93 182.26
  A 3.46 3.45 -89.2 0 0 333.82 184.21
  L 435.47 227.45
  Q 434.12 227.58 433.39 226.87
  Q 433.26 226.74 433.07 226.73
  Q 432.94 226.72 432.99 226.96
  Q 433.03 227.18 432.81 227.15
  Q 431.56 226.97 430.64 226.18
  Q 430.23 225.84 429.71 225.91
  Q 428.34 226.09 427.10 225.41
  Q 426.22 224.93 425.23 225.05
  Q 422.77 225.33 420.07 225.65
  Q 417.78 225.92 414.92 225.53
  Q 410.93 225.00 406.00 225.19
  Q 404.64 225.25 399.25 225.16
  Q 379.66 224.83 359.39 224.66
  C 358.11 224.65 357.14 224.98 355.84 224.78
  Q 354.53 224.57 353.18 224.59
  Q 337.42 224.80 321.25 224.29
  Q 309.76 223.92 291.36 224.56
  C 290.21 224.60 289.15 224.22 287.99 224.39
  Q 283.84 224.99 279.45 224.05
  A 2.13 2.12 -66.8 0 0 277.23 224.94
  Q 277.17 225.02 277.12 225.63
  Q 277.19 225.29 277.08 225.12
  Q 276.75 224.61 276.75 225.22
  L 276.84 244.47
  Q 276.34 251.70 276.33 262.75
  Q 276.28 293.86 276.38 305.50
  Q 276.41 308.77 275.14 309.12
  Q 273.37 308.45 268.53 305.97
  Q 231.91 287.12 200.87 265.58
  Q 201.28 264.93 202.00 264.50
  A 1.55 1.54 -2.9 0 0 202.60 263.84
  Q 203.48 261.99 205.08 260.96
  Q 205.45 260.73 205.65 260.35
  Q 206.95 257.97 209.37 255.82
  Q 211.08 254.30 212.85 252.97
  A 2.37 2.30 86.8 0 0 213.44 252.29
  Q 214.75 249.89 216.93 248.41
  Q 218.33 247.47 219.47 246.16
  Q 220.64 244.83 222.20 244.24
  Q 222.74 244.03 222.92 243.48
  C 223.29 242.37 223.59 241.33 224.52 240.54
  Q 231.40 234.71 238.38 228.06
  Q 241.44 225.15 244.49 222.31
  Q 247.67 219.36 250.48 216.04
  Q 251.61 214.69 252.99 213.39
  Q 254.32 212.12 255.36 210.60
  Q 256.30 209.23 257.30 208.47
  C 259.00 207.17 259.87 205.52 261.45 204.18
  C 262.55 203.24 262.98 202.21 264.15 201.36
  Q 268.35 198.30 272.54 195.47
  Q 273.00 195.15 273.24 194.64
  Q 273.83 193.36 274.96 192.54
  Q 275.39 192.24 275.50 191.73
  C 275.80 190.39 276.17 188.81 276.16 187.41
  Q 276.00 160.79 276.29 134.37
  Z"
/>
<path fill="#8a40cd" d="
  M 143.99 216.05
  Q 144.16 216.67 144.47 217.01
  C 160.92 235.43 180.64 251.47 200.87 265.58
  Q 231.91 287.12 268.53 305.97
  Q 273.37 308.45 275.14 309.12
  Q 295.76 319.00 317.24 327.67
  Q 317.70 327.86 318.19 327.77
  Q 319.07 327.63 319.76 327.98
  Q 319.98 328.97 320.56 329.19
  Q 343.30 337.96 366.34 343.20
  C 382.03 346.77 399.36 349.09 414.95 347.11
  C 422.45 346.15 431.11 343.10 435.69 336.80
  C 441.23 329.18 439.03 318.46 435.17 310.23
  C 429.94 299.10 421.43 288.22 412.31 278.83
  Q 411.09 277.58 412.72 276.96
  L 417.93 274.98
  Q 419.63 274.34 420.96 275.57
  C 435.26 288.84 448.74 303.42 458.76 320.61
  C 464.51 330.47 469.46 342.98 465.76 353.78
  C 461.92 364.97 449.53 369.82 438.91 371.44
  C 427.92 373.12 417.54 372.79 405.54 371.43
  Q 390.89 369.78 375.72 366.13
  Q 344.43 358.60 314.56 346.54
  A 1.67 1.67 0.0 0 0 312.37 347.49
  L 276.93 439.73
  Q 276.62 440.53 276.25 439.75
  L 275.69 438.58
  Q 275.84 437.48 276.06 436.52
  Q 276.32 435.37 276.32 434.46
  C 276.36 400.27 275.93 366.05 276.59 331.86
  A 2.21 2.20 -76.8 0 0 275.34 329.84
  Q 249.25 317.32 223.57 302.47
  Q 221.37 300.65 219.99 299.82
  Q 208.09 292.68 196.42 285.18
  Q 194.99 284.27 192.46 283.02
  Q 190.24 281.91 188.57 280.71
  Q 177.44 272.46 166.83 264.66
  Q 142.35 246.68 121.45 225.78
  Q 109.95 213.49 100.26 200.26
  Q 91.38 188.12 87.38 175.72
  Q 85.19 168.95 85.82 161.94
  C 87.07 147.97 100.17 141.61 112.87 139.42
  C 124.56 137.40 137.30 137.86 149.39 139.46
  C 169.96 142.17 191.00 147.76 210.98 154.25
  Q 212.54 154.76 211.92 156.29
  L 210.39 160.06
  Q 209.81 161.48 208.33 161.06
  Q 189.32 155.56 169.63 153.34
  C 153.67 151.54 120.68 151.52 121.89 175.90
  C 122.60 190.16 133.45 205.02 142.82 215.42
  Q 143.06 215.69 143.99 216.05
  Z"
/>
<path fill="#311c87" d="
  M 435.47 227.45
  L 461.96 238.89
  Q 462.46 239.11 461.96 239.33
  L 448.00 245.41
  Q 448.50 244.30 447.75 244.24
  Q 440.07 243.56 432.04 243.01
  Q 430.75 242.92 429.50 243.01
  Q 428.19 243.10 426.92 243.15
  Q 425.04 243.24 423.07 243.13
  Q 403.96 242.13 398.74 242.60
  Q 394.99 242.94 391.27 242.58
  C 390.43 242.50 389.70 242.85 388.82 242.83
  Q 380.30 242.58 370.45 242.61
  C 368.83 242.62 367.38 241.99 365.77 242.16
  Q 364.01 242.36 362.25 242.19
  Q 360.09 241.98 357.79 242.00
  Q 351.00 242.07 344.30 241.96
  Q 342.37 241.92 340.17 242.12
  C 338.96 242.23 337.96 241.58 336.77 242.07
  Q 336.28 242.27 335.79 242.10
  Q 335.49 242.00 335.18 242.00
  L 297.50 242.42
  A 0.81 0.77 -68.4 0 0 296.91 242.69
  Q 296.41 243.24 295.87 242.98
  Q 295.58 242.84 295.26 242.85
  L 279.43 243.21
  Q 279.29 243.22 279.20 243.31
  L 279.01 243.51
  Q 278.36 244.16 278.32 243.07
  Q 278.31 242.52 277.80 242.44
  Q 277.27 242.37 277.16 242.90
  L 276.84 244.47
  L 276.75 225.22
  Q 276.75 224.61 277.08 225.12
  Q 277.19 225.29 277.12 225.63
  Q 277.17 225.02 277.23 224.94
  A 2.13 2.12 -66.8 0 1 279.45 224.05
  Q 283.84 224.99 287.99 224.39
  C 289.15 224.22 290.21 224.60 291.36 224.56
  Q 309.76 223.92 321.25 224.29
  Q 337.42 224.80 353.18 224.59
  Q 354.53 224.57 355.84 224.78
  C 357.14 224.98 358.11 224.65 359.39 224.66
  Q 379.66 224.83 399.25 225.16
  Q 404.64 225.25 406.00 225.19
  Q 410.93 225.00 414.92 225.53
  Q 417.78 225.92 420.07 225.65
  Q 422.77 225.33 425.23 225.05
  Q 426.22 224.93 427.10 225.41
  Q 428.34 226.09 429.71 225.91
  Q 430.23 225.84 430.64 226.18
  Q 431.56 226.97 432.81 227.15
  Q 433.03 227.18 432.99 226.96
  Q 432.94 226.72 433.07 226.73
  Q 433.26 226.74 433.39 226.87
  Q 434.12 227.58 435.47 227.45
  Z"
/>
<path fill="#311c87" d="
  M 121.45 225.78
  Q 142.35 246.68 166.83 264.66
  Q 177.44 272.46 188.57 280.71
  L 90.60 239.57
  A 0.42 0.42 0.0 0 1 90.60 238.79
  L 121.45 225.78
  Z"
/>
<path fill="#4f279d" d="
  M 448.00 245.41
  L 333.42 294.26
  A 1.99 1.98 -1.2 0 0 332.36 295.36
  L 319.76 327.98
  Q 319.07 327.63 318.19 327.77
  Q 317.70 327.86 317.24 327.67
  Q 295.76 319.00 275.14 309.12
  Q 276.41 308.77 276.38 305.50
  Q 276.28 293.86 276.33 262.75
  Q 276.34 251.70 276.84 244.47
  L 277.16 242.90
  Q 277.27 242.37 277.80 242.44
  Q 278.31 242.52 278.32 243.07
  Q 278.36 244.16 279.01 243.51
  L 279.20 243.31
  Q 279.29 243.22 279.43 243.21
  L 295.26 242.85
  Q 295.58 242.84 295.87 242.98
  Q 296.41 243.24 296.91 242.69
  A 0.81 0.77 -68.4 0 1 297.50 242.42
  L 335.18 242.00
  Q 335.49 242.00 335.79 242.10
  Q 336.28 242.27 336.77 242.07
  C 337.96 241.58 338.96 242.23 340.17 242.12
  Q 342.37 241.92 344.30 241.96
  Q 351.00 242.07 357.79 242.00
  Q 360.09 241.98 362.25 242.19
  Q 364.01 242.36 365.77 242.16
  C 367.38 241.99 368.83 242.62 370.45 242.61
  Q 380.30 242.58 388.82 242.83
  C 389.70 242.85 390.43 242.50 391.27 242.58
  Q 394.99 242.94 398.74 242.60
  Q 403.96 242.13 423.07 243.13
  Q 425.04 243.24 426.92 243.15
  Q 428.19 243.10 429.50 243.01
  Q 430.75 242.92 432.04 243.01
  Q 440.07 243.56 447.75 244.24
  Q 448.50 244.30 448.00 245.41
  Z"
/>
<path fill="#3344a0" d="
  M 223.57 302.47
  Q 249.25 317.32 275.34 329.84
  A 2.21 2.20 -76.8 0 1 276.59 331.86
  C 275.93 366.05 276.36 400.27 276.32 434.46
  Q 276.32 435.37 276.06 436.52
  Q 275.84 437.48 275.69 438.58
  Q 269.50 423.22 263.93 407.75
  Q 263.05 405.32 260.97 399.93
  Q 245.58 360.25 230.10 320.60
  Q 226.81 312.17 223.57 302.47
  Z"
/>
</svg>
